# xmcd
# Copyright (C) 1995-1998 Ti Kan
#
# Track frame offsets:
#       150
#       61012
#       77912
#       148427
#       195471
#       212208
#
# Disc length: 3614 seconds
#
# Revision: 0
# Processed by: cddbd v1.5.2PL0 Copyright (c) Steve Scherf et al.
# Submitted via: CD-Transfer v1.0
#
DISCID=570e1c06
DTITLE=Mono - You Are There
DYEAR=06
DGENRE=
TTITLE0=Flames Beyond The Cold Mountain
TTITLE1=Heart Has Asked For The Pleasure
TTITLE2=Yearning
TTITLE3=Are You There?
TTITLE4=Remains Of The Day
TTITLE5=Moonlight
EXTD=
EXTT0=
EXTT1=
EXTT2=
EXTT3=
EXTT4=
EXTT5=
PLAYORDER=
